<svg width="28" height="28" viewBox="0 0 28 28" fill="none" xmlns="http://www.w3.org/2000/svg">
<g clip-path="url(#clip0_38_11494)">
<path d="M21.5486 5.21478C21.8903 4.87307 22.4442 4.87307 22.7859 5.21478C23.1274 5.5565 23.1276 6.11044 22.7859 6.45209L15.2379 14.0001L22.7859 21.5481C23.1274 21.8899 23.1276 22.4438 22.7859 22.7854C22.4443 23.1271 21.8903 23.1269 21.5486 22.7854L14.0006 15.2374L6.45256 22.7854C6.11092 23.1271 5.55698 23.1269 5.21526 22.7854C4.87355 22.4437 4.87357 21.8899 5.21526 21.5481L12.7633 14.0001L5.21526 6.45209C4.87355 6.11038 4.87357 5.55649 5.21526 5.21478C5.55697 4.87307 6.11085 4.87307 6.45256 5.21478L14.0006 12.7628L21.5486 5.21478Z" fill="#121212"/>
</g>
<defs>
<clipPath id="clip0_38_11494">
<rect width="28" height="28" fill="white"/>
</clipPath>
</defs>
</svg>

